<svg width="240" height="240" viewBox="0 0 240 240" fill="none" xmlns="http://www.w3.org/2000/svg">
  <defs>
    <linearGradient id="bg" x1="0" y1="0" x2="240" y2="240" gradientUnits="userSpaceOnUse">
      <stop stop-color="#4D7B61" />
      <stop offset="1" stop-color="#2F5742" />
    </linearGradient>
  </defs>
  <rect width="240" height="240" rx="120" fill="url(#bg)" />
  <g fill="#F2F7F4">
    <path d="M120 54C99.013 54 81.857 71.072 81.857 91.963c0 12.66 4.976 23.72 13.08 31.194-2.596 1.58-4.846 3.588-6.58 5.966-5.352 7.21-6.626 16.634-3.413 26.695 4.337 13.718 19.087 24.182 35.056 24.182 15.97 0 30.72-10.464 35.056-24.182 3.213-10.061 1.939-19.485-3.413-26.695-1.734-2.378-3.984-4.386-6.58-5.966 8.104-7.474 13.08-18.534 13.08-31.194C158.143 71.072 140.987 54 120 54Z" />
    <path d="M72.27 134.059c-11.388 0-20.62 9.397-20.62 21.16 0 11.764 9.232 21.161 20.62 21.161 6.334 0 12.009-3.118 15.732-7.954-3.585-5.603-4.933-12.938-3.173-20.22 0.69-2.821 1.723-5.457 3.048-7.884-4.485-3.713-9.861-6.263-15.607-6.263Zm95.46 0c-5.746 0-11.122 2.55-15.607 6.263 1.325 2.427 2.358 5.063 3.048 7.884 1.76 7.282 0.412 14.617-3.173 20.22 3.723 4.836 9.398 7.954 15.732 7.954 11.388 0 20.62-9.397 20.62-21.161 0-11.763-9.232-21.16-20.62-21.16Z" />
  </g>
  <g fill="#2F5742">
    <path d="M87.5 171.5c13.5 10.5 51 11 65 0 0 0-10 29-32.5 29S87.5 171.5 87.5 171.5Z" opacity="0.3" />
  </g>
</svg>
